<mxfile host="app.diagrams.net" agent="Mozilla/5.0 (Macintosh; Intel Mac OS X 10_15_7) AppleWebKit/537.36 (KHTML, like Gecko) Chrome/136.0.0.0 Safari/537.36" version="26.2.14">
  <diagram name="第 1 页" id="OWaDS2ANXYIOP-P9oz31">
    <mxGraphModel dx="1298" dy="779" grid="1" gridSize="10" guides="1" tooltips="1" connect="1" arrows="1" fold="1" page="1" pageScale="1" pageWidth="3300" pageHeight="4681" math="0" shadow="0">
      <root>
        <mxCell id="0" />
        <mxCell id="1" parent="0" />
        <mxCell id="2prRLdSNfImNbYrp3ROz-2" value="noti-scheduler" style="rounded=1;whiteSpace=wrap;html=1;fillColor=#f8cecc;strokeColor=#b85450;" vertex="1" parent="1">
          <mxGeometry x="600" y="370" width="120" height="60" as="geometry" />
        </mxCell>
        <mxCell id="2prRLdSNfImNbYrp3ROz-10" style="edgeStyle=orthogonalEdgeStyle;rounded=0;orthogonalLoop=1;jettySize=auto;html=1;exitX=1;exitY=0.5;exitDx=0;exitDy=0;" edge="1" parent="1" source="2prRLdSNfImNbYrp3ROz-3" target="2prRLdSNfImNbYrp3ROz-9">
          <mxGeometry relative="1" as="geometry" />
        </mxCell>
        <mxCell id="2prRLdSNfImNbYrp3ROz-20" style="edgeStyle=orthogonalEdgeStyle;rounded=0;orthogonalLoop=1;jettySize=auto;html=1;exitX=0;exitY=0.5;exitDx=0;exitDy=0;" edge="1" parent="1" source="2prRLdSNfImNbYrp3ROz-3" target="2prRLdSNfImNbYrp3ROz-12">
          <mxGeometry relative="1" as="geometry" />
        </mxCell>
        <mxCell id="2prRLdSNfImNbYrp3ROz-21" style="edgeStyle=orthogonalEdgeStyle;rounded=0;orthogonalLoop=1;jettySize=auto;html=1;exitX=0;exitY=0.5;exitDx=0;exitDy=0;" edge="1" parent="1" source="2prRLdSNfImNbYrp3ROz-3" target="2prRLdSNfImNbYrp3ROz-13">
          <mxGeometry relative="1" as="geometry" />
        </mxCell>
        <mxCell id="2prRLdSNfImNbYrp3ROz-3" value="noti-dispatcher" style="rounded=1;whiteSpace=wrap;html=1;fillColor=#f8cecc;strokeColor=#b85450;" vertex="1" parent="1">
          <mxGeometry x="1120" y="100" width="120" height="60" as="geometry" />
        </mxCell>
        <mxCell id="2prRLdSNfImNbYrp3ROz-5" style="edgeStyle=orthogonalEdgeStyle;rounded=0;orthogonalLoop=1;jettySize=auto;html=1;exitX=0.5;exitY=0.5;exitDx=0;exitDy=0;exitPerimeter=0;entryX=0;entryY=0.5;entryDx=0;entryDy=0;" edge="1" parent="1" source="2prRLdSNfImNbYrp3ROz-4" target="2prRLdSNfImNbYrp3ROz-2">
          <mxGeometry relative="1" as="geometry" />
        </mxCell>
        <mxCell id="2prRLdSNfImNbYrp3ROz-4" value="Caller" style="shape=umlActor;verticalLabelPosition=bottom;verticalAlign=top;html=1;outlineConnect=0;" vertex="1" parent="1">
          <mxGeometry x="460" y="370" width="30" height="60" as="geometry" />
        </mxCell>
        <mxCell id="2prRLdSNfImNbYrp3ROz-9" value="MQ" style="strokeWidth=2;html=1;shape=mxgraph.flowchart.direct_data;whiteSpace=wrap;fillColor=#e1d5e7;strokeColor=#9673a6;" vertex="1" parent="1">
          <mxGeometry x="1320" y="100" width="110" height="60" as="geometry" />
        </mxCell>
        <mxCell id="2prRLdSNfImNbYrp3ROz-11" value="Push" style="text;html=1;align=center;verticalAlign=middle;resizable=0;points=[];autosize=1;strokeColor=none;fillColor=none;" vertex="1" parent="1">
          <mxGeometry x="1260" y="130" width="50" height="30" as="geometry" />
        </mxCell>
        <mxCell id="2prRLdSNfImNbYrp3ROz-12" value="Redis" style="strokeWidth=2;html=1;shape=mxgraph.flowchart.database;whiteSpace=wrap;fillColor=#ffe6cc;strokeColor=#d79b00;" vertex="1" parent="1">
          <mxGeometry x="820" y="220" width="100" height="100" as="geometry" />
        </mxCell>
        <mxCell id="2prRLdSNfImNbYrp3ROz-13" value="New KV" style="strokeWidth=2;html=1;shape=mxgraph.flowchart.database;whiteSpace=wrap;fillColor=#ffe6cc;strokeColor=#d79b00;" vertex="1" parent="1">
          <mxGeometry x="990" y="220" width="100" height="100" as="geometry" />
        </mxCell>
        <mxCell id="2prRLdSNfImNbYrp3ROz-14" style="edgeStyle=orthogonalEdgeStyle;rounded=0;orthogonalLoop=1;jettySize=auto;html=1;exitX=1;exitY=0.5;exitDx=0;exitDy=0;entryX=0.5;entryY=1;entryDx=0;entryDy=0;entryPerimeter=0;" edge="1" parent="1" source="2prRLdSNfImNbYrp3ROz-2" target="2prRLdSNfImNbYrp3ROz-12">
          <mxGeometry relative="1" as="geometry" />
        </mxCell>
        <mxCell id="2prRLdSNfImNbYrp3ROz-15" style="edgeStyle=orthogonalEdgeStyle;rounded=0;orthogonalLoop=1;jettySize=auto;html=1;exitX=1;exitY=0.5;exitDx=0;exitDy=0;entryX=0.5;entryY=1;entryDx=0;entryDy=0;entryPerimeter=0;" edge="1" parent="1" source="2prRLdSNfImNbYrp3ROz-2" target="2prRLdSNfImNbYrp3ROz-13">
          <mxGeometry relative="1" as="geometry" />
        </mxCell>
      </root>
    </mxGraphModel>
  </diagram>
</mxfile>
